<?xml version="1.0" encoding="UTF-8"?>
<svg width="12px" height="12px" viewBox="0 0 12 12" version="1.1" xmlns="http://www.w3.org/2000/svg" xmlns:xlink="http://www.w3.org/1999/xlink">
    <!-- Generator: Sketch 48.1 (47250) - http://www.bohemiancoding.com/sketch -->
    <title>black_collect_press</title>
    <desc>Created with Sketch.</desc>
    <defs/>
    <g id="1首页-copy" stroke="none" stroke-width="1" fill="none" fill-rule="evenodd" transform="translate(-925.000000, -796.000000)">
        <g id="Group-6" transform="translate(390.000000, 746.000000)" fill="#525E80" fill-rule="nonzero">
            <g id="1" transform="translate(288.000000, 0.000000)">
                <g id="black_collect_press" transform="translate(247.000000, 50.000000)">
                    <path d="M9.31495569,11.996897 C9.21128328,11.9968996 9.10923629,11.9702416 9.01799462,11.9193212 L5.99964037,10.2545455 L2.98203602,11.9193212 C2.71765245,12.0604229 2.39423251,11.9956258 2.19988857,11.7626182 C2.07844195,11.6137564 2.02683447,11.4169633 2.05890705,11.2250182 L2.63708124,7.69299394 L0.190152068,5.19195152 C0.0169555983,5.01583456 -0.0441507701,4.75304801 0.032672716,4.51471515 C0.106706767,4.27728603 0.304738119,4.10401297 0.543355759,4.06787879 L3.91941311,3.55355152 L5.42971509,0.342690909 C5.64418697,-0.114230303 6.35509376,-0.114230303 6.57031555,0.342690909 L8.08136743,3.55355152 L11.4566749,4.06787879 C11.6958935,4.10433939 11.8916179,4.27578182 11.9673579,4.51471515 C12.044124,4.7532943 11.9830435,5.01627073 11.8098786,5.19272727 L9.3636993,7.6937697 L9.94187349,11.2265697 C9.97342762,11.4178277 9.92195465,11.613755 9.80116041,11.7621813 C9.68036617,11.9106076 9.50251202,11.9964668 9.31495569,11.996897 Z" id="Shape-Copy-2"/>
                </g>
            </g>
        </g>
    </g>
</svg>